<svg id="Layer_1" data-name="Layer 1" xmlns="http://www.w3.org/2000/svg" xmlns:xlink="http://www.w3.org/1999/xlink" viewBox="0 0 153.12 40.52">
  <defs>
    <style>
      .cls-1 {
        fill: none;
        clip-rule: evenodd;
      }

      .cls-2 {
        clip-path: url(#clip-path);
      }

      .cls-3 {
        fill: url(#linear-gradient);
      }
    </style>
    <clipPath id="clip-path" transform="translate(0)">
      <path class="cls-1" d="M142.72,38.95a47.28,47.28,0,0,1-4.61-2.24l-4.21-2.35q-2-1.17-4.07-2.31a28.44,28.44,0,0,0-4.29-1.94c-0.72-.27-1.55-0.53-2.48-0.79a20.84,20.84,0,0,1-1.72-5,6.24,6.24,0,0,1,1.59-.26,13.56,13.56,0,0,1,4.21.55,28.42,28.42,0,0,1,4,1.47L131,25.79c2,4,6,6.11,10.53,6.11l0.67,0h0l0.75,0.35a26.16,26.16,0,0,0,4.87,1.69,16.09,16.09,0,0,0,4.52.43l0.26,0.47a1.69,1.69,0,0,1-.46,1.94,24.23,24.23,0,0,1-7.81,2.79Q143.51,39.27,142.72,38.95ZM152.78,4.63s0,0,0-.07S152.78,4.6,152.78,4.63Zm0,0.23v0Zm-0.06.21,0,0.08Zm-1.47,29.08a20,20,0,0,1-6.65-1.47q-1-.39-1.92-0.84l-0.27,0A15.23,15.23,0,0,0,148.17,30a1.47,1.47,0,0,1,2,.63l2,3.5C151.86,34.16,151.55,34.16,151.23,34.14Zm-8.16,5.62,1.13-.18Zm-17.52-8.84q1.24,0.51,2.47,1.1,2.33,1.17,4.54,2.46T137.09,37a56.24,56.24,0,0,0,6,2.76,22.73,22.73,0,0,1-3,.21,18.65,18.65,0,0,1-16.52-9.78Q124.55,30.51,125.54,30.92ZM123.41,30c-0.12-.22-0.23-0.43-0.34-0.65C123.18,29.57,123.3,29.78,123.41,30Zm-13.2,9.73,0.71-.11Zm-3.44-3.2q2.33-1.24,4.55-2.53t4.55-2.45l1.44-.65,2.19,3.93a1.69,1.69,0,0,1-.46,1.94,24.43,24.43,0,0,1-8.13,2.85q1.31-1.12,2.62-2.17a23.44,23.44,0,0,1,3.5-2.31,19.93,19.93,0,0,1,2.06-1.05l-0.17-.31q-0.68.29-1.34,0.63a22.35,22.35,0,0,0-2.44,1.47q-1.17.81-2.11,1.54-1.49,1.11-2.95,2.34A22.9,22.9,0,0,1,107,40a19.06,19.06,0,0,1-5.73-.87A56,56,0,0,0,106.77,36.53Zm-6.2,2.34,0.63,0.22Zm-4.51-5.42a26.25,26.25,0,0,0,4.88-1.69q1.07-.49,2.1-1l-0.06,0a12.88,12.88,0,0,0,5.48,1.17A14.46,14.46,0,0,0,115.12,30a1.52,1.52,0,0,1,1.86.33l-0.45,0q-1.28.56-2.48,1.22-2,1.14-4.08,2.31l-4.23,2.34a47.3,47.3,0,0,1-4.63,2.24l-0.78.32a18.49,18.49,0,0,1-7.23-4.91A16.38,16.38,0,0,0,96.05,33.46Zm6.76-2.8-0.09,0-0.62.32q-1.39.7-2.84,1.28a20.15,20.15,0,0,1-6.35,1.45,20.11,20.11,0,0,1-4-7.13,19.52,19.52,0,0,0,3.9-.33q1.82-.29,3.57-0.73l1.28-.34A10.52,10.52,0,0,0,102.81,30.65ZM68.83,35A19.13,19.13,0,0,0,79.1,37.1a15.61,15.61,0,0,0,3.32-.66,8.93,8.93,0,0,0,1.27-.51v1.81a1.38,1.38,0,0,1-1.48,1.49c-5.49,0-11.57-1.37-15.4-5.38Q67.81,34.43,68.83,35ZM66.49,33.5l0.21,0.24ZM66.06,33l0.21,0.26Zm-0.42-.55,0.22,0.29Zm-0.38-.55,0.21,0.32Zm-14,5.94a26.71,26.71,0,0,1,4.34,1.25L56,39.23H52.6a1.35,1.35,0,0,1-1.42-1.41h0ZM60,35.3v2.44a1.36,1.36,0,0,1-1.42,1.49H57.66q-1.38-.6-2.78-1.14a18,18,0,0,0-3.69-1V32.46a28.85,28.85,0,0,1,4.57,1.19Q57.91,34.41,60,35.3ZM57.9,28.89Q59,29.26,60,29.73V35q-2.1-.87-4.26-1.6a29.57,29.57,0,0,0-4.57-1.16v-4.8l1.14,0.14A28.6,28.6,0,0,1,57.9,28.89Zm1.6-14.18L60,14.4v2.33a35.12,35.12,0,0,1-3.78,2.64,29.13,29.13,0,0,1-4.55,2.24l-0.49.18V17.26A23,23,0,0,0,54,16.87,16.51,16.51,0,0,0,59.5,14.71ZM14.83,24.18a41.77,41.77,0,0,1,6.32,1.34,52.76,52.76,0,0,1,6.49,2.42l0.77,0.33,0.14-.41c-0.67,1.89-1.25,3.76-1.7,5.53a1.46,1.46,0,0,1-1.31,1H23l-0.12-.18c-0.12-.18-0.12,0-0.09.18H19.28a1.46,1.46,0,0,1-1.31-1,63.51,63.51,0,0,0-3.25-9.48Zm-13,15A1.36,1.36,0,0,1,.43,37.74V36.61a27.76,27.76,0,0,1,5.32,2.62H1.85Zm3.1-5.82c1.21,0.93,2.3,1.14,3.45,2v2.3a1.38,1.38,0,0,1-1.48,1.49H6.36C5.29,38.06,2.69,37,.43,36.05V30.69a9.51,9.51,0,0,1,1.94,1.12C3,32.39,4.37,32.77,4.95,33.41ZM8.4,34.18c-0.78-.49-1.54-0.72-2.69-1.4-0.89-.52-2.49-1.68-3.35-2.2a17.84,17.84,0,0,0-1.94-1V26.77A38.17,38.17,0,0,1,8.4,29v5.21ZM6.87,23.76H8.4v4.56c-1.52-.78-4.9-1.41-8-1.9V23.91c1.8-.06,3.86-0.09,4.29-0.11C5.42,23.77,6.14,23.76,6.87,23.76Zm1.53-4v3.33q-1.71,0-3.35,0c-0.52,0-2.72,0-4.62.08v-4c2.61,0.29,5.74.47,6.91,0.53Zm-1-3,1-.14v3a60.68,60.68,0,0,1-8-.59V16.75A52.76,52.76,0,0,0,7.41,16.8Zm-7-12V2.9A1.35,1.35,0,0,1,1.85,1.47H8.29C6.57,2.2,4.88,2.9,4.07,3.22,3,3.65,1.89,4.35.43,4.84ZM7.74,5.3Q6.5,6,5.23,6.58A18.67,18.67,0,0,1,.43,7.66V5c2.66-.88,5.8-2.44,6.91-2.83q0.91-.32,1.8-0.68h2.33a2.11,2.11,0,0,1,1.79,1Q10.51,3.85,7.74,5.3ZM13,14.82q-1.25.41-2.55,0.72C9.74,14.37,9,13.31,8.4,12.4V16l-0.55.1a42,42,0,0,1-7.42,0V8.15a21.27,21.27,0,0,0,4.4-1q3.06-1.39,5.87-3Q12,3.4,13.45,2.7l0,0c0.48,0.66,2.85,4.89,5.39,10.1Q15.94,13.9,13,14.82Zm6.11-1.49L18.95,13Zm5.13,5.36,0,0.12Zm20-17.17L44,1.48Zm0.29,0.1-0.19-.08Zm0.27,0.17-0.17-.12Zm0.07,0.05A1.29,1.29,0,0,1,45,2,1.35,1.35,0,0,0,44.86,1.84Zm-4,8a27.6,27.6,0,0,0-7.43-.59,34.82,34.82,0,0,0-5.21.72c1.93-3.84,3.56-6.71,3.94-7.25a2.35,2.35,0,0,1,2.05-1.26H44L45,2.06a1.45,1.45,0,0,1,.25.84v8c-0.35-.11-0.72-0.22-1.08-0.3Zm0.58,13.55A39.14,39.14,0,0,0,36.42,21v-9a69.38,69.38,0,0,0-7.76,15.62l-1.09-.5q-1.17-.51-2.4-1a34.74,34.74,0,0,0-6.49-1.87q-2.06-.38-4.11-0.61C14,22.2,13.36,20.9,12.73,19.68q3.33-.27,6.6-0.61c0.76-.08,1.54-0.13,2.31-0.17l-0.09-.21q-3.26.21-6.52,0.53-1.2.12-2.43,0.2C12,18.28,11.42,17.2,10.83,16.2q0.75-.17,1.5-0.38,2.48-.7,4.85-1.61l2-.74c1.31,2.73,2.65,5.7,3.76,8.55,0.39-1,.81-2.1,1.25-3.16q1.22,0,2.45.08a27.33,27.33,0,0,1,5.3.85L32,19.55Q31,19.28,29.9,19.07a31.82,31.82,0,0,0-5.62-.49c1.27-3,2.68-6,4-8.59l-0.4.81,2-.48A23.59,23.59,0,0,1,38.27,10q2.19,0.37,4.66.92a15.5,15.5,0,0,1,2.36.72V26.09c-0.2-.17-0.4-0.34-0.61-0.5A37.54,37.54,0,0,0,41.48,23.39Zm0.33,9.09A31.08,31.08,0,0,1,36.42,31V21.32Q38.24,22.06,40,23a32,32,0,0,1,4.12,2.56,12.64,12.64,0,0,1,1.16,1v6.16A12.64,12.64,0,0,1,41.81,32.48Zm2,6.75H37.9a1.38,1.38,0,0,1-1.48-1.49v-6q1.13,0.4,2.26.73a22.12,22.12,0,0,0,4.34.81,13.77,13.77,0,0,0,2.29,0v4.49A1.41,1.41,0,0,1,43.82,39.23ZM51.18,2.88A1.35,1.35,0,0,1,52.6,1.47h3.6q-2,.62-4.1,1.15Zm4.64,1.43a14.93,14.93,0,0,0-4.48,1.36l-0.16.08V3.16q1.48-.49,3-0.9t2.76-.79h8.41a29.32,29.32,0,0,1-5,1.92A37.41,37.41,0,0,1,55.82,4.31Zm16.29-.44a40.44,40.44,0,0,1-3.57,3.77q-0.44.44-.91,0.84t-1,.77a3.8,3.8,0,0,0-1.17.22H60V14q-0.78.49-1.6,0.92a17.21,17.21,0,0,1-3.13,1.28,21.13,21.13,0,0,1-3.28.7L51.18,17V6.63A9.52,9.52,0,0,1,53,5.74a27,27,0,0,1,4.74-1.17,31.73,31.73,0,0,0,4.74-1.1,25.53,25.53,0,0,0,4.67-2h2.47a20.54,20.54,0,0,1,4.27.43Q73,2.84,72.11,3.87ZM69.7,7.06q0.95-1,1.82-1.94t1.75-1.94L74.39,2a16.37,16.37,0,0,1,2.38.77,31.73,31.73,0,0,0-3.6,2.45q-2.51,2-4.92,4.18a4.28,4.28,0,0,0-1-.15l1.24-1.06Q69.12,7.64,69.7,7.06Zm4.24-5.15L74.16,2Zm3.62,1.22-0.71-.32ZM73.21,27.9c0.8,2.75,4.16,3.89,9,3.89a1.58,1.58,0,0,1,.58.11c0.24,0.18.47,0.37,0.69,0.57a1.44,1.44,0,0,1,.22.75v1.83a7,7,0,0,1-2.26,1,17,17,0,0,1-4,.48,13.44,13.44,0,0,1-5.76-1.1,34.19,34.19,0,0,1-5.25-2.86l-1.16-.68a13.65,13.65,0,0,1-1.56-3.4c-1.2-.06-2.45-0.17-3.7-0.29v0.89a27.21,27.21,0,0,0-8.48-2.28l-0.34,0v-2l2.93-.25q1.75-.15,3.53-0.18a19,19,0,0,1,3.53.26,54.43,54.43,0,0,1,6,1.06,22.24,22.24,0,0,0,6.16.55,14.69,14.69,0,0,0,4.3-.77,10.46,10.46,0,0,0,3.72-2.24,9.23,9.23,0,0,0,1.75-2c0.38-.6.79-1.19,1.2-1.77,0.13-.39.24-0.8,0.33-1.21l-0.22.31q-0.8,1.25-1.6,2.42A15.63,15.63,0,0,1,81,23.1a10.07,10.07,0,0,1-4.74,2.45,20.78,20.78,0,0,1-5.39.4,27.73,27.73,0,0,1-6-1,28.08,28.08,0,0,0-6.08-1,57,57,0,0,0-6.09.18l-1.51.15V22.51a21.45,21.45,0,0,0,5-2.23Q58.13,19.1,60,17.73v2.73c1.94,0.17,3.7.23,5.24,0.23,8,0,11-1.94,11-5.95,0-2.63-2.16-5.26-6.66-5.26H69.51Q71.1,8,72.73,6.65A34.59,34.59,0,0,1,76.48,3.9Q77,3.51,77.64,3.17A12.75,12.75,0,0,1,85,14.74C85,21.55,81.3,26.3,73.21,27.9Zm10.2,4.48,0.05,0.07Zm-0.1-.12-0.08-.08ZM83,32l0.1,0.07ZM82.8,31.9L82.91,32Zm7.65-12.44a22.51,22.51,0,0,0,5.61-1.17l0.75-.23h0a13.33,13.33,0,0,0-.13,1.9,13.9,13.9,0,0,0,.71,4.51v0l-2,.53a26.41,26.41,0,0,1-2.59.62,20.26,20.26,0,0,1-2.73.33,11.27,11.27,0,0,1-1.4,0,21.33,21.33,0,0,1-.76-4.12h2.26a19.51,19.51,0,0,0,5.36-.84l1.14-.43c0-.1,0-0.2,0-0.3a21.51,21.51,0,0,1-6.31,1.38c-0.85,0-1.66,0-2.46,0,0-.55-0.07-1.1-0.07-1.65,0-.14,0-0.27,0-0.41Q89.15,19.56,90.44,19.46Zm-2.57-.53s0,0.06,0,.1S87.87,19,87.87,18.93Zm0.36-3,0,0.19ZM102.58,1.58Q100.72,4,98.9,6.49A42.32,42.32,0,0,1,95,11.11a23.56,23.56,0,0,1-4.52,3.63,14,14,0,0,1-2.23,1.1A18.74,18.74,0,0,1,103.2.79ZM113,2.83a37.2,37.2,0,0,0-2.91,3c-0.79.89-1.55,1.78-2.3,2.65l0.84,0-0.87,0A11,11,0,0,0,96.94,17.3v0a18.76,18.76,0,0,1-5.45,1.47,28.64,28.64,0,0,1-3.63.18,21.06,21.06,0,0,1,.31-2.73A14.28,14.28,0,0,0,90.63,15a23.66,23.66,0,0,0,4.59-3.66,40.65,40.65,0,0,0,3.9-4.65q1.82-2.53,3.72-5l0.77-1A20.42,20.42,0,0,1,107,.44a26.22,26.22,0,0,1,7.47,1.15Q113.68,2.17,113,2.83Zm2.34-1-0.71-.23Zm1.87,7.9a1.38,1.38,0,0,1-2,.46L114.4,9.9,114.53,10l0.9-.53q1.33-.77,2.69-1.47l0.24-.46L117.26,8c-1.06.57-2.1,1.16-3.13,1.75l0.08,0a16.92,16.92,0,0,0-5.34-1.32h0.08l1.87-2.19a32.39,32.39,0,0,1,2.84-2.93q0.86-.78,1.79-1.47a24.44,24.44,0,0,1,3.61,1.56,1.3,1.3,0,0,1,.46,1.89Zm3.76,9c0,0.1,0,.2,0,0.3C120.92,19,120.93,18.87,120.94,18.77Zm9.29-14.95a32.42,32.42,0,0,1,2.83,2.93l2.53,3,0,0a11.18,11.18,0,0,0-5.91,10.23,13.27,13.27,0,0,0,1.18,5.68h0l-0.67-.27a23.28,23.28,0,0,0-3.78-1.14,14.46,14.46,0,0,0-3.81-.29,7.43,7.43,0,0,0-1.33.2,21.59,21.59,0,0,1-.41-4.16c0-.27,0-0.53,0-0.8a15.8,15.8,0,0,1,5.46,0q1.69,0.31,3.35.75,0-.32,0-0.63-1.67-.42-3.36-0.7a19,19,0,0,0-5.42-.1A19.86,19.86,0,0,1,124.8,7.92q1.86,0.91,3.65,2l2.72,1.61,1.27,0.75,0.25-.27-2.36-1.4q-1.81-1.06-3.71-2.09-0.82-.41-1.66-0.79a18.46,18.46,0,0,1,4.73-4.33Zm-0.49-.49L130.28,3ZM146,2.25a16.35,16.35,0,0,0,3.45,2.16,8.81,8.81,0,0,0,3.15.79s0,0.1-.07.15l-2.33,4.41a1.38,1.38,0,0,1-2,.46,17,17,0,0,0-7.4-1.77,11.08,11.08,0,0,0-4.45.94l0.15-.07q-1.29-1.52-2.65-3.07a37.21,37.21,0,0,0-2.91-3l-0.43-.38A19.17,19.17,0,0,1,139.65.45q0.7,0.83,1.37,1.69,1.89,2.46,3.71,5,0.91,1.26,1.87,2.42l0.6,0.24Q146,8.43,144.94,6.94,143.13,4.45,141.27,2,140.65,1.22,140,.44h0a24.74,24.74,0,0,1,4.31.4Q145.17,1.56,146,2.25Zm-9.92,7.23-0.23.11Zm9.32-8.43L146,1.18Zm-0.94-.19L145.15,1Zm7.35,3.59a9.34,9.34,0,0,1-3-1.28,27.41,27.41,0,0,1-2.65-1.94,25.91,25.91,0,0,1,5.93,2.24,1.3,1.3,0,0,1,.68,1.07A4.7,4.7,0,0,1,151.84,4.45Z"/>
    </clipPath>
    <linearGradient id="linear-gradient" x1="76.56" x2="76.56" y2="40.52" gradientUnits="userSpaceOnUse">
      <stop offset="0" stop-color="#abedb0"/>
      <stop offset="0.12" stop-color="#a4e9ad"/>
      <stop offset="0.28" stop-color="#91dca6"/>
      <stop offset="0.48" stop-color="#72c899"/>
      <stop offset="0.7" stop-color="#47ac88"/>
      <stop offset="0.94" stop-color="#108872"/>
      <stop offset="1" stop-color="#007e6c"/>
    </linearGradient>
  </defs>
  <title>mrcc_lite</title>
  <g class="cls-2">
    <rect class="cls-3" width="153.12" height="40.52"/>
  </g>
</svg>
